<svg xmlns="http://www.w3.org/2000/svg" x="0px" y="0px"
width="100" height="100"
viewBox="0,0,256,256">
<defs><clipPath id="clip-1_4VtcJN4d9JEF_gr1"><path d="M0,256v-256h256v256zM65.29167,139.14167h121.41667v-24.28333h-121.41667z" id="overlayBgMask" fill="none" fill-rule="nonzero" opacity="0.5"></path></clipPath></defs><g clip-path="url(#clip-1)" fill="none" fill-rule="none" stroke="none" stroke-width="1" stroke-linecap="butt" stroke-linejoin="miter" stroke-miterlimit="10" stroke-dasharray="" stroke-dashoffset="0" font-family="none" font-weight="none" font-size="none" text-anchor="none" style="mix-blend-mode: normal"><g transform="scale(0.5,0.5)" fill="#353535" fill-rule="evenodd"><path d="M254,13c133,0 241,108 241,241c0,133 -108,241 -241,241c-133,0 -241,-108 -241,-241c0,-133 108,-241 241,-241zM254,31c123,0 223,100 223,223c0,123 -100,223 -223,223c-123,0 -223,-100 -223,-223c0,-123 100,-223 223,-223z"></path></g></g><g fill="#81929e" fill-rule="nonzero" stroke="none" stroke-width="1" stroke-linecap="butt" stroke-linejoin="miter" stroke-miterlimit="10" stroke-dasharray="" stroke-dashoffset="0" font-family="none" font-weight="none" font-size="none" text-anchor="none" style="mix-blend-mode: normal"><g transform="translate(67.25,115.25) scale(11.75,11.75)" id="overlay"><path d="M0,0h10v2h-10z"></path></g></g>
</svg>