<svg xmlns="http://www.w3.org/2000/svg" x="0px" y="0px"
width="100" height="100"
viewBox="0,0,256,256">
<defs><clipPath id="clip-1_4VtcJN4d9JEF_gr1"><path d="M0,256v-256h256v256zM61.25,162.97302v28.77698h28.77698l74.04317,-74.04317l-28.77698,-28.77698zM159.86871,64.35432l-14.38849,14.38849l28.77698,28.77698l14.38849,-14.38849c2.80576,-2.80576 2.80576,-7.36691 0,-10.17266l-18.60432,-18.60432c-2.82014,-2.80576 -7.36691,-2.80576 -10.17266,0z" id="overlayBgMask" fill="none" fill-rule="nonzero" opacity="0.5"></path></clipPath></defs><g clip-path="url(#clip-1)" fill="none" fill-rule="none" stroke="none" stroke-width="1" stroke-linecap="butt" stroke-linejoin="miter" stroke-miterlimit="10" stroke-dasharray="" stroke-dashoffset="0" font-family="none" font-weight="none" font-size="none" text-anchor="none" style="mix-blend-mode: normal"><g transform="scale(0.5,0.5)" fill="#353535" fill-rule="evenodd"><path d="M254,13c133,0 241,108 241,241c0,133 -108,241 -241,241c-133,0 -241,-108 -241,-241c0,-133 108,-241 241,-241zM254,31c123,0 223,100 223,223c0,123 -100,223 -223,223c-123,0 -223,-100 -223,-223c0,-123 100,-223 223,-223z"></path></g></g><g fill="#81929e" fill-rule="nonzero" stroke="none" stroke-width="1" stroke-linecap="butt" stroke-linejoin="miter" stroke-miterlimit="10" stroke-dasharray="" stroke-dashoffset="0" font-family="none" font-weight="none" font-size="none" text-anchor="none" style="mix-blend-mode: normal"><g transform="translate(70.5,71.50308) scale(12.33299,12.33299)" id="overlay"><path d="M5.146,1.854l2,2l-5.146,5.146h-2v-2zM6.854,0.146l-1,1l2,2l1,-1c0.195,-0.195 0.195,-0.512 0,-0.707l-1.293,-1.293c-0.196,-0.195 -0.512,-0.195 -0.707,0z"></path></g></g>
</svg>