<?xml version="1.0" encoding="utf-8"?>
<svg viewBox="-1.426 94.189 343.308 106" style="background-color: transparent;" xmlns="http://www.w3.org/2000/svg">
  <defs>
    <linearGradient gradientUnits="userSpaceOnUse" x1="67" y1="0" x2="67" y2="99.528" id="gradient-1" spreadMethod="pad" gradientTransform="matrix(1.000001, 0.000002, -0.000001, 0.596862, -0.000014, -0.000021)">
      <stop offset="0" style="stop-color: rgba(40, 76, 99, 1)"/>
      <stop offset="1" style="stop-color: rgb(73, 135, 177);"/>
    </linearGradient>
  </defs>
  <svg viewBox="0 0 134 139" width="70" height="70" style="fill: rgb(85, 111, 129);" x="28.608999633789068" y="115" transform="matrix(0.503597, 0, 0, 0.503597, 29.867992, 115)">
    <svg width="134" height="134" viewBox="0 0 134 134" xmlns="http://www.w3.org/2000/svg">
      <path d="M67 0C29.9996 0 0 29.9996 0 67C0 78.8106 3.0596 89.8951 8.42686 99.5277L26.8233 81.1312V54.3467H40.2285V67.726L67 40.9545L125.573 99.5277C130.927 89.8951 134 78.8106 134 67C134 29.9996 104 0 67 0Z" style="paint-order: fill; fill: url(#gradient-1);"/>
      <path d="M67 54.3467L13.7292 107.617C25.9676 123.654 45.2716 134 67 134C88.7283 134 108.032 123.654 120.271 107.617L67 54.3467ZM63.3829 119.532H52.5317V108.68H63.3829V119.532ZM63.3829 103.235H52.5317V92.3842H63.3829V103.235ZM81.4812 119.532H70.63V108.68H81.4812V119.532ZM81.4812 103.235H70.63V92.3842H81.4812V103.235Z" style="fill: rgb(129, 146, 158);"/>
    </svg>
  </svg>
  <svg style="fill: rgb(53, 53, 53);" x="108.60899963378907" y="131.75500011444092" transform="matrix(1, 0, 0, 1, 108.609001, 131.755005)">
    <path d="M3.22 31L3.22 3.27L12.40 3.27Q15.52 3.27 17.68 4.23Q19.84 5.18 20.98 7.03Q22.11 8.89 22.11 11.60L22.11 11.60Q22.11 13.50 21.34 15.07Q20.57 16.64 19.13 17.74Q17.69 18.83 15.69 19.36L15.69 19.36L14.66 19.76L6.04 19.76L6.00 16.77L12.51 16.77Q14.49 16.77 15.81 16.08Q17.12 15.38 17.79 14.20Q18.45 13.02 18.45 11.60L18.45 11.60Q18.45 10.00 17.82 8.80Q17.20 7.60 15.85 6.94Q14.51 6.28 12.40 6.28L12.40 6.28L6.89 6.28L6.89 31L3.22 31ZM23.35 31L19.42 31L12.68 18.43L16.51 18.41L23.35 30.77L23.35 31ZM25.78 20.93L25.78 20.93L25.78 20.49Q25.78 18.26 26.43 16.35Q27.08 14.43 28.30 13.01Q29.52 11.60 31.25 10.80Q32.98 10.01 35.13 10.01L35.13 10.01Q37.31 10.01 39.05 10.80Q40.79 11.60 42.02 13.01Q43.25 14.43 43.89 16.35Q44.54 18.26 44.54 20.49L44.54 20.49L44.54 20.93Q44.54 23.15 43.89 25.06Q43.25 26.96 42.02 28.38Q40.79 29.80 39.07 30.59Q37.34 31.38 35.17 31.38L35.17 31.38Q33.00 31.38 31.27 30.59Q29.54 29.80 28.31 28.38Q27.08 26.96 26.43 25.06Q25.78 23.15 25.78 20.93ZM29.31 20.49L29.31 20.49L29.31 20.93Q29.31 22.47 29.67 23.83Q30.03 25.19 30.76 26.24Q31.50 27.29 32.60 27.89Q33.71 28.49 35.17 28.49L35.17 28.49Q36.62 28.49 37.71 27.89Q38.81 27.29 39.53 26.24Q40.26 25.19 40.63 23.83Q41.00 22.47 41.00 20.93L41.00 20.93L41.00 20.49Q41.00 18.96 40.63 17.60Q40.26 16.24 39.52 15.18Q38.79 14.13 37.70 13.52Q36.60 12.91 35.13 12.91L35.13 12.91Q33.69 12.91 32.59 13.52Q31.50 14.13 30.76 15.18Q30.03 16.24 29.67 17.60Q29.31 18.96 29.31 20.49ZM48.03 20.93L48.03 20.93L48.03 20.49Q48.03 18.26 48.67 16.35Q49.32 14.43 50.54 13.01Q51.76 11.60 53.49 10.80Q55.22 10.01 57.38 10.01L57.38 10.01Q59.55 10.01 61.29 10.80Q63.03 11.60 64.26 13.01Q65.49 14.43 66.14 16.35Q66.78 18.26 66.78 20.49L66.78 20.49L66.78 20.93Q66.78 23.15 66.14 25.06Q65.49 26.96 64.26 28.38Q63.03 29.80 61.31 30.59Q59.59 31.38 57.41 31.38L57.41 31.38Q55.24 31.38 53.51 30.59Q51.78 29.80 50.55 28.38Q49.32 26.96 48.67 25.06Q48.03 23.15 48.03 20.93ZM51.55 20.49L51.55 20.49L51.55 20.93Q51.55 22.47 51.91 23.83Q52.27 25.19 53.01 26.24Q53.74 27.29 54.84 27.89Q55.95 28.49 57.41 28.49L57.41 28.49Q58.86 28.49 59.96 27.89Q61.05 27.29 61.78 26.24Q62.50 25.19 62.87 23.83Q63.24 22.47 63.24 20.93L63.24 20.93L63.24 20.49Q63.24 18.96 62.87 17.60Q62.50 16.24 61.77 15.18Q61.03 14.13 59.94 13.52Q58.84 12.91 57.38 12.91L57.38 12.91Q55.93 12.91 54.83 13.52Q53.74 14.13 53.01 15.18Q52.27 16.24 51.91 17.60Q51.55 18.96 51.55 20.49ZM74.52 10.40L74.71 14.49L74.71 31L71.16 31L71.16 10.40L74.52 10.40ZM73.98 19.92L73.98 19.92L72.34 19.86Q72.36 17.75 72.90 15.95Q73.43 14.15 74.48 12.81Q75.52 11.48 77.09 10.75Q78.65 10.01 80.70 10.01L80.70 10.01Q82.15 10.01 83.37 10.42Q84.59 10.83 85.48 11.71Q86.38 12.59 86.87 13.96Q87.37 15.33 87.37 17.27L87.37 17.27L87.37 31L83.85 31L83.85 17.44Q83.85 15.82 83.30 14.85Q82.76 13.88 81.77 13.43Q80.78 12.99 79.45 12.99L79.45 12.99Q77.89 12.99 76.84 13.54Q75.79 14.09 75.16 15.06Q74.53 16.03 74.26 17.28Q73.98 18.53 73.98 19.92ZM87.33 17.97L87.33 17.97L84.97 18.70Q84.99 17.00 85.53 15.44Q86.07 13.88 87.11 12.66Q88.15 11.44 89.67 10.73Q91.20 10.01 93.16 10.01L93.16 10.01Q94.81 10.01 96.10 10.45Q97.39 10.89 98.27 11.80Q99.16 12.70 99.61 14.11Q100.07 15.52 100.07 17.46L100.07 17.46L100.07 31L96.53 31L96.53 17.42Q96.53 15.69 95.99 14.73Q95.44 13.77 94.46 13.38Q93.48 12.99 92.13 12.99L92.13 12.99Q90.97 12.99 90.07 13.39Q89.18 13.79 88.57 14.48Q87.96 15.18 87.65 16.07Q87.33 16.97 87.33 17.97ZM108.87 28.01L123.55 28.01L123.55 31L108.87 31L108.87 28.01ZM105.94 3.27L109.61 3.27L109.61 31L105.94 31L105.94 3.27ZM108.87 15.19L121.61 15.19L121.61 18.18L108.87 18.18L108.87 15.19ZM108.87 3.27L123.36 3.27L123.36 6.28L108.87 6.28L108.87 3.27ZM138.42 3.27L138.37 5.73L129.19 31L125.44 31L136.00 3.27L138.42 3.27ZM149.83 31L146.06 31L136.86 5.73L136.80 3.27L139.22 3.27L149.83 31ZM130.01 20.74L145.58 20.74L145.58 23.74L130.01 23.74L130.01 20.74ZM168.32 23.99L168.32 23.99Q168.32 23.02 168.03 22.27Q167.73 21.52 167.00 20.91Q166.26 20.30 164.98 19.75Q163.69 19.19 161.73 18.62L161.73 18.62Q159.68 18.01 158.02 17.26Q156.36 16.51 155.18 15.54Q154.00 14.57 153.37 13.31Q152.74 12.05 152.74 10.43L152.74 10.43Q152.74 8.81 153.41 7.44Q154.08 6.07 155.32 5.05Q156.57 4.04 158.30 3.46Q160.04 2.89 162.17 2.89L162.17 2.89Q165.29 2.89 167.47 4.08Q169.65 5.27 170.80 7.19Q171.94 9.10 171.94 11.27L171.94 11.27L168.28 11.27Q168.28 9.71 167.62 8.50Q166.95 7.29 165.60 6.60Q164.25 5.90 162.17 5.90L162.17 5.90Q160.21 5.90 158.93 6.49Q157.66 7.08 157.04 8.09Q156.42 9.10 156.42 10.40L156.42 10.40Q156.42 11.27 156.79 11.99Q157.16 12.70 157.95 13.31Q158.74 13.92 159.97 14.43Q161.20 14.95 162.91 15.42L162.91 15.42Q165.27 16.09 166.99 16.91Q168.70 17.73 169.82 18.75Q170.93 19.76 171.47 21.05Q172.02 22.34 172.02 23.95L172.02 23.95Q172.02 25.65 171.33 27.02Q170.64 28.39 169.37 29.36Q168.09 30.33 166.31 30.86Q164.53 31.38 162.34 31.38L162.34 31.38Q160.42 31.38 158.56 30.85Q156.70 30.31 155.19 29.25Q153.68 28.18 152.77 26.61Q151.87 25.04 151.87 22.96L151.87 22.96L155.52 22.96Q155.52 24.39 156.08 25.41Q156.63 26.43 157.59 27.10Q158.55 27.76 159.78 28.08Q161.01 28.39 162.34 28.39L162.34 28.39Q164.26 28.39 165.60 27.86Q166.93 27.32 167.63 26.33Q168.32 25.34 168.32 23.99ZM179.63 28.01L194.31 28.01L194.31 31L179.63 31L179.63 28.01ZM176.70 3.27L180.38 3.27L180.38 31L176.70 31L176.70 3.27ZM179.63 15.19L192.37 15.19L192.37 18.18L179.63 18.18L179.63 15.19ZM179.63 3.27L194.12 3.27L194.12 6.28L179.63 6.28L179.63 3.27Z"/>
  </svg>
</svg>