<?xml version="1.0" standalone="no"?>
<!DOCTYPE svg PUBLIC "-//W3C//DTD SVG 20010904//EN"
 "http://www.w3.org/TR/2001/REC-SVG-20010904/DTD/svg10.dtd">
<svg version="1.0" xmlns="http://www.w3.org/2000/svg"
 width="700.000000pt" height="700.000000pt" viewBox="0 0 700.000000 700.000000"
 preserveAspectRatio="xMidYMid meet">
<metadata>
Created by potrace 1.14, written by Peter Selinger 2001-2017
</metadata>
<g transform="translate(0.000000,700.000000) scale(0.100000,-0.100000)"
fill="#000000" stroke="none">
<path d="M3379 5946 c-2 -2 -35 -6 -74 -10 -444 -39 -931 -248 -1285 -550
-179 -153 -401 -419 -510 -611 -112 -196 -225 -482 -254 -638 -2 -15 -7 -30
-10 -35 -3 -5 -8 -31 -12 -58 -3 -27 -8 -51 -9 -54 -2 -3 -6 -33 -10 -65 -4
-33 -10 -87 -14 -119 -13 -94 -10 -361 5 -481 11 -94 18 -135 39 -247 12 -62
60 -222 90 -303 51 -136 143 -327 155 -323 6 2 153 146 328 321 l317 317 0
470 c0 461 0 469 20 472 11 2 117 3 235 3 l215 -1 5 -232 5 -232 465 465 c256
256 468 465 472 465 3 0 470 -463 1036 -1030 l1029 -1029 51 102 c108 217 189
474 217 687 3 25 8 52 10 60 15 57 24 449 11 505 -2 11 -7 49 -11 85 -8 85
-29 189 -65 326 -98 378 -310 748 -597 1039 -96 97 -112 112 -218 196 -268
215 -644 392 -975 458 -92 19 -103 21 -150 27 -24 3 -56 8 -70 11 -33 5 -435
14 -441 9z"/>
<path d="M2610 3136 c-509 -507 -931 -930 -938 -939 -11 -13 -10 -20 10 -43
150 -180 331 -350 483 -455 28 -19 52 -37 55 -40 12 -13 182 -111 267 -153
174 -87 438 -177 583 -200 19 -3 60 -10 90 -16 170 -33 540 -35 725 -5 515 85
952 304 1306 655 108 107 193 202 212 236 8 13 -209 232 -1743 1759 l-125 124
-925 -923z m793 -415 c4 -1 7 -86 7 -191 l0 -190 -193 0 -192 0 0 185 c0 129
4 188 12 193 8 5 318 8 366 3z m625 0 c17 -1 18 -14 18 -191 l0 -190 -191 2
-190 3 0 185 c-1 138 3 186 12 190 10 4 275 5 351 1z m-618 -761 l0 -190 -192
2 -193 3 0 180 c-1 99 0 183 2 188 3 4 89 7 194 7 l189 0 0 -190z m636 3 l-1
-188 -191 -3 -190 -2 0 190 0 190 191 0 191 0 0 -187z"/>
</g>
</svg>
